<svg width="64" height="64" viewBox="0 0 64 64" fill="none" xmlns="http://www.w3.org/2000/svg">
<path fill-rule="evenodd" clip-rule="evenodd" d="M34.5552 3.93353C35.0451 4.43534 35.4298 5.03 35.6867 5.68255C35.9436 6.33511 36.0675 7.03255 36.0512 7.73366V8.46966C36.8986 8.08913 37.8395 7.96712 38.7559 8.11892C39.6724 8.27071 40.5237 8.68942 41.2032 9.32285C41.6939 9.829 42.079 10.4279 42.3358 11.0844C42.5927 11.741 42.7162 12.4421 42.6992 13.1469V16.1656C43.3173 15.886 43.9888 15.744 44.6672 15.7496C45.8533 15.739 46.9964 16.1937 47.8512 17.0162C48.3411 17.518 48.7258 18.1127 48.9827 18.7652C49.2396 19.4178 49.3635 20.1152 49.3472 20.8163V41.8243C49.452 44.5181 49.0056 47.2049 48.0354 49.72C47.0651 52.2351 45.5913 54.5256 43.7045 56.4509C40.3592 59.5879 35.9452 61.3338 31.3592 61.3338C26.7732 61.3338 22.3591 59.5879 19.0138 56.4509C17.1232 54.5272 15.6454 52.2376 14.671 49.7224C13.6965 47.2073 13.2461 44.5197 13.3472 41.8243V28.8562C13.3336 28.1536 13.4609 27.4555 13.7215 26.8028C13.9821 26.1502 14.3707 25.5563 14.8645 25.0562C15.7192 24.2337 16.8623 23.779 18.0485 23.7896C18.7267 23.7835 19.3981 23.9244 20.0165 24.2029V13.123C20.0002 12.4219 20.1241 11.7244 20.381 11.0719C20.6379 10.4193 21.0226 9.82466 21.5125 9.32285C22.1835 8.6751 23.0356 8.24674 23.9557 8.09434C24.8758 7.94194 25.8205 8.07285 26.6645 8.46966V7.73366C26.6482 7.03255 26.7721 6.33511 27.029 5.68255C27.2859 5.03 27.6706 4.43534 28.1605 3.93353C29.0152 3.111 30.1583 2.65632 31.3445 2.66693C32.524 2.7137 33.6525 3.16033 34.5445 3.93353H34.5552ZM31.3552 5.61354C30.8512 5.60177 30.3619 5.78302 29.9872 6.12022C29.7814 6.32958 29.6234 6.58102 29.524 6.8572C29.4246 7.13338 29.3861 7.42786 29.4112 7.72031V31.2376C29.4279 31.4274 29.405 31.6186 29.3439 31.7991C29.2828 31.9796 29.1848 32.1454 29.0561 32.2859C28.9274 32.4264 28.7709 32.5387 28.5966 32.6155C28.4222 32.6923 28.2337 32.7319 28.0432 32.7319C27.8526 32.7319 27.6642 32.6923 27.4898 32.6155C27.3154 32.5387 27.1589 32.4264 27.0302 32.2859C26.9016 32.1454 26.8036 31.9796 26.7424 31.7991C26.6813 31.6186 26.6584 31.4274 26.6752 31.2376V13.2242C26.6763 12.6009 26.4741 11.9942 26.0992 11.4962C25.7277 11.1507 25.2384 10.9601 24.7312 10.963C24.4558 10.9535 24.1816 11.0034 23.9273 11.1096C23.6731 11.2158 23.4447 11.3757 23.2579 11.5782C23.071 11.7808 22.9301 12.0212 22.8447 12.2831C22.7594 12.5451 22.7315 12.8226 22.7632 13.0963V41.3816C22.7799 41.5714 22.757 41.7627 22.6959 41.9431C22.6348 42.1236 22.5368 42.2894 22.4081 42.4299C22.2794 42.5705 22.1229 42.6826 21.9486 42.7594C21.7742 42.8362 21.5857 42.8759 21.3952 42.8759C21.2046 42.8759 21.0162 42.8362 20.8418 42.7594C20.6674 42.6826 20.5109 42.5705 20.3822 42.4299C20.2536 42.2894 20.1556 42.1236 20.0944 41.9431C20.0333 41.7627 20.0104 41.5714 20.0272 41.3816V28.9656C20.0325 28.3416 19.8298 27.7336 19.4512 27.2376C19.0717 26.8912 18.5756 26.7007 18.0618 26.7042C17.7888 26.6989 17.5177 26.7513 17.2663 26.858C17.0149 26.9647 16.7889 27.1235 16.6031 27.3237C16.4173 27.5238 16.2759 27.7609 16.1881 28.0195C16.1004 28.2781 16.0682 28.5524 16.0938 28.8243V41.7923C15.9823 44.0809 16.3465 46.3677 17.1635 48.5084C17.9805 50.6491 19.2325 52.5972 20.8405 54.2296C23.7005 56.882 27.4572 58.3559 31.3578 58.3559C35.2585 58.3559 39.0152 56.882 41.8752 54.2296C43.4831 52.5972 44.7351 50.6491 45.5521 48.5084C46.3691 46.3677 46.7334 44.0809 46.6218 41.7923V20.7843C46.6538 20.3874 46.565 19.9901 46.3671 19.6446C46.1691 19.2992 45.8713 19.0217 45.5127 18.8486C45.1541 18.6755 44.7516 18.615 44.3579 18.6749C43.9643 18.7348 43.598 18.9124 43.3072 19.1843C43.0851 19.4141 42.9165 19.6899 42.8133 19.9923C42.71 20.2947 42.6747 20.616 42.7098 20.9335V33.8562C42.7266 34.046 42.7037 34.2373 42.6426 34.4177C42.5815 34.5982 42.4834 34.764 42.3548 34.9046C42.2261 35.0451 42.0696 35.1574 41.8952 35.2341C41.7208 35.3109 41.5324 35.3505 41.3418 35.3505C41.1513 35.3505 40.9628 35.3109 40.7885 35.2341C40.6141 35.1574 40.4576 35.0451 40.3289 34.9046C40.2002 34.764 40.1022 34.5982 40.0411 34.4177C39.98 34.2373 39.9571 34.046 39.9738 33.8562V13.1043C40.0014 12.8064 39.9641 12.5061 39.8647 12.2239C39.7653 11.9417 39.606 11.6845 39.3978 11.4697C39.0188 11.1226 38.5224 10.932 38.0085 10.9363C37.501 10.932 37.0112 11.123 36.6405 11.4697C36.4323 11.6845 36.2731 11.9417 36.1736 12.2239C36.0742 12.5061 36.037 12.8064 36.0645 13.1043V31.4376C36.0813 31.6274 36.0584 31.8187 35.9973 31.9991C35.9361 32.1796 35.8381 32.3454 35.7094 32.4859C35.5808 32.6265 35.4243 32.7386 35.2499 32.8154C35.0755 32.8921 34.887 32.9319 34.6965 32.9319C34.506 32.9319 34.3175 32.8921 34.1431 32.8154C33.9687 32.7386 33.8122 32.6265 33.6836 32.4859C33.5549 32.3454 33.4569 32.1796 33.3958 31.9991C33.3346 31.8187 33.3117 31.6274 33.3285 31.4376C33.3285 23.5158 33.3285 15.6002 33.3285 7.69086C33.3507 7.39682 33.3087 7.10154 33.2056 6.8253C33.1025 6.54905 32.9406 6.2985 32.7312 6.09092C32.3565 5.75373 31.8671 5.57247 31.3632 5.58425L31.3552 5.61354Z" fill="black"/>
</svg>
