<svg width="64" height="64" viewBox="0 0 64 64" fill="none" xmlns="http://www.w3.org/2000/svg">
<path d="M47.7841 61.5547C43.9534 59.9246 40.7668 57.0772 38.7174 53.4534H6.31741C5.34963 53.452 4.42189 53.0669 3.73756 52.3826C3.05323 51.6983 2.66816 50.7705 2.66675 49.8027V6.31741C2.66745 5.34941 3.0523 4.42126 3.73678 3.73678C4.42126 3.0523 5.34941 2.66745 6.31741 2.66675H47.8854C48.8534 2.66745 49.7816 3.0523 50.466 3.73678C51.1505 4.42126 51.5354 5.34941 51.5361 6.31741V33.9041L60.4721 38.5094C60.8815 38.7181 61.2267 39.0339 61.4708 39.4232C61.715 39.8125 61.8491 40.2607 61.8587 40.7201V40.7361C61.9374 44.0861 61.3762 47.4204 60.2054 50.5601C59.3149 53.0053 57.9326 55.242 56.1439 57.1322C54.3551 59.0223 52.1979 60.5256 49.8054 61.5494C49.1581 61.8021 48.4394 61.8021 47.7921 61.5494L47.7841 61.5547ZM38.5041 40.9414C38.4301 44.5087 39.1946 48.0435 40.7361 51.2614C40.7638 51.3191 40.7869 51.3788 40.8054 51.4401C40.8187 51.4774 40.8294 51.5041 40.8481 51.5467C42.5932 54.8327 45.3945 57.4349 48.8001 58.9334C50.8409 58.0374 52.6769 56.7335 54.1952 55.1019C55.7136 53.4702 56.8823 51.5453 57.6294 49.4454C58.6233 46.7227 59.1148 43.8423 59.0801 40.9441L48.7974 35.6107L38.5041 40.9414ZM5.45608 6.31741V49.8027C5.45573 49.9161 5.47775 50.0284 5.52088 50.1332C5.56401 50.238 5.6274 50.3333 5.70742 50.4135C5.78743 50.4938 5.8825 50.5575 5.98718 50.6009C6.09186 50.6444 6.20408 50.6668 6.31741 50.6667H6.58408V50.7227H37.3947C36.1872 47.5488 35.6172 44.1679 35.7174 40.7734C35.741 40.3194 35.8803 39.8789 36.1221 39.4938C36.3638 39.1088 36.7 38.792 37.0987 38.5734L47.6481 33.1014C48.0007 32.9094 48.399 32.8172 48.8001 32.8347V6.31741C48.8001 6.08897 48.7093 5.86989 48.5478 5.70836C48.3863 5.54683 48.1672 5.45608 47.9387 5.45608H36.4187V20.8694C36.4191 21.2698 36.3021 21.6616 36.0822 21.9962C35.8623 22.3308 35.5491 22.5936 35.1814 22.7521C34.8159 22.9146 34.41 22.9636 34.0164 22.8927C33.6227 22.8219 33.2593 22.6345 32.9734 22.3547L31.0774 20.6134L28.5334 22.9921C28.1363 23.3206 27.6381 23.5024 27.1227 23.5067C26.8609 23.5185 26.5993 23.4774 26.3537 23.3857C26.1081 23.2941 25.8836 23.1538 25.6934 22.9734L23.1734 20.6081L21.2694 22.3601C20.9064 22.7202 20.4154 22.9216 19.9041 22.9201C19.6162 22.9188 19.3315 22.8599 19.0667 22.7467C18.6933 22.5966 18.3748 22.3357 18.1541 21.9991C17.9334 21.6625 17.821 21.2664 17.8321 20.8641V5.45608H6.31741C6.08897 5.45608 5.86989 5.54683 5.70836 5.70836C5.54683 5.86989 5.45608 6.08897 5.45608 6.31741ZM24.5334 18.1334L27.1147 20.5041L29.6427 18.1361C30.0246 17.7907 30.5212 17.5995 31.0361 17.5995C31.551 17.5995 32.0475 17.7907 32.4294 18.1361L33.6187 19.2027V5.45608H20.6294V19.1867L21.7601 18.1334C22.1414 17.7923 22.6351 17.6038 23.1467 17.6038C23.6584 17.6038 24.1521 17.7923 24.5334 18.1334ZM46.6134 51.4001L42.5521 47.3388C42.4197 47.2127 42.3143 47.0611 42.2422 46.8931C42.1702 46.7251 42.1331 46.5442 42.1331 46.3614C42.1331 46.1786 42.1702 45.9977 42.2422 45.8297C42.3143 45.6617 42.4197 45.5101 42.5521 45.3841C42.6785 45.2519 42.8304 45.1468 42.9986 45.075C43.1668 45.0031 43.3479 44.9661 43.5307 44.9661C43.7136 44.9661 43.8946 45.0031 44.0628 45.075C44.231 45.1468 44.3829 45.2519 44.5094 45.3841L47.5921 48.4667L52.9867 43.0721C53.1136 42.941 53.2654 42.8368 53.4333 42.7657C53.6012 42.6945 53.7817 42.6578 53.9641 42.6578C54.1464 42.6578 54.3269 42.6945 54.4948 42.7657C54.6627 42.8368 54.8146 42.941 54.9414 43.0721C55.0738 43.1981 55.1792 43.3497 55.2512 43.5177C55.3233 43.6857 55.3604 43.8666 55.3604 44.0494C55.3604 44.2322 55.3233 44.4131 55.2512 44.5811C55.1792 44.7491 55.0738 44.9007 54.9414 45.0267L48.5707 51.4001C48.4439 51.5315 48.2919 51.6361 48.1237 51.7075C47.9556 51.7789 47.7748 51.8157 47.5921 51.8157C47.4094 51.8157 47.2286 51.7789 47.0604 51.7075C46.8923 51.6361 46.7403 51.5315 46.6134 51.4001ZM11.7867 47.1361C11.1179 47.1354 10.4767 46.8694 10.0037 46.3964C9.53079 45.9235 9.26479 45.2822 9.26408 44.6134V40.8347C9.26549 40.1661 9.53172 39.5253 10.0045 39.0525C10.4773 38.5797 11.1181 38.3135 11.7867 38.3121H22.5041C22.8364 38.3085 23.166 38.3713 23.4737 38.4968C23.7813 38.6223 24.0609 38.808 24.2958 39.043C24.5308 39.278 24.7165 39.5575 24.842 39.8652C24.9675 40.1728 25.0303 40.5025 25.0267 40.8347V44.6134C25.026 45.2822 24.76 45.9235 24.2871 46.3964C23.8142 46.8694 23.1729 47.1354 22.5041 47.1361H11.7867ZM12.0001 44.2907H22.1814V41.0454H12.0001V44.2907Z" fill="black"/>
</svg>
