<svg width="64" height="64" viewBox="0 0 64 64" fill="none" xmlns="http://www.w3.org/2000/svg">
<path d="M2.96675 13.1429C2.96675 10.4443 4.03928 7.85543 5.94631 5.94631C7.85543 4.03928 10.4443 2.96675 13.1429 2.96675H50.8572C53.5558 2.96675 56.1446 4.03924 58.0537 5.9462C59.9608 7.85533 61.0334 10.4442 61.0334 13.1429V50.8572C61.0334 56.4765 56.4765 61.0334 50.8572 61.0334V61.3334C50.8572 61.0334 50.8571 61.0334 50.8569 61.0334H50.8559H50.8542H50.8518H50.8488H50.8451H50.8407H50.8357H50.83H50.8236H50.8166H50.8089H50.8006H50.7916H50.782H50.7717H50.7608H50.7493H50.7371H50.7243H50.7108H50.6967H50.682H50.6667H50.6507H50.6341H50.6169H50.5991H50.5806H50.5616H50.5419H50.5216H50.5007H50.4792H50.4571H50.4344H50.4112H50.3873H50.3628H50.3377H50.3121H50.2858H50.259H50.2316H50.2036H50.175H50.1459H50.1162H50.0859H50.0551H50.0237H49.9917H49.9592H49.9261H49.8924H49.8582H49.8235H49.7882H49.7523H49.7159H49.679H49.6415H49.6035H49.565H49.5259H49.4863H49.4461H49.4055H49.3643H49.3226H49.2803H49.2376H49.1943H49.1506H49.1063H49.0615H49.0162H48.9704H48.9241H48.8773H48.83H48.7822H48.7339H48.6852H48.6359H48.5862H48.536H48.4853H48.4341H48.3824H48.3303H48.2777H48.2246H48.1711H48.1171H48.0626H48.0077H47.9523H47.8965H47.8402H47.7835H47.7263H47.6687H47.6106H47.5521H47.4931H47.4338H47.3739H47.3137H47.253H47.1919H47.1304H47.0684H47.006H46.9432H46.88H46.8164H46.7524H46.6879H46.6231H46.5578H46.4921H46.4261H46.3596H46.2928H46.2256H46.1579H46.0899H46.0215H45.9527H45.8835H45.814H45.7441H45.6738H45.6031H45.532H45.4606H45.3889H45.3167H45.2442H45.1714H45.0982H45.0246H44.9507H44.8764H44.8018H44.7268H44.6515H44.5759H44.4999H44.4236H44.347H44.27H44.1927H44.1151H44.0371H43.9588H43.8802H43.8013H43.7221H43.6426H43.5627H43.4826H43.4021H43.3213H43.2403H43.1589H43.0773H42.9953H42.9131H42.8305H42.7477H42.6646H42.5812H42.4975H42.4136H42.3294H42.2449H42.1601H42.0751H41.9898H41.9042H41.8184H41.7323H41.646H41.5594H41.4725H41.3854H41.2981H41.2105H41.1226H41.0346H40.9462H40.8577H40.7689H40.6799H40.5906H40.5012H40.4115H40.3215H40.2314H40.141H40.0505H39.9597H39.8687H39.7775H39.686H39.5944H39.5026H39.4106H39.3184H39.2259H39.1333H39.0405H38.9476H38.8544H38.761H38.6675H38.5738H38.4799H38.3858H38.2916H38.1972H38.1026H38.0079H37.9129H37.8179H37.7227H37.6273H37.5317H37.4361H37.3402H37.2443H37.1481H37.0519H36.9555H36.8589H36.7622H36.6654H36.5685H36.4714H36.3742H36.2769H36.1795H36.0819H35.9842H35.8864H35.7885H35.6905H35.5924H35.4941H35.3958H35.2974H35.1989H35.1002H35.0015H34.9027H34.8038H34.7048H34.6057H34.5066H34.4073H34.308H34.2086H34.1092H34.0096H33.91H33.8104H33.7106H33.6108H33.511H33.4111H33.3111H33.2111H33.111H33.0109H32.9108H32.8106H32.7103H32.61H32.5097H32.4093H32.309H32.2085H32.1081H32.0076H31.9071H31.8066H31.7061H31.6056H31.505H31.4044H31.3038H31.2033H31.1027H31.0021H30.9015H30.8009H30.7003H30.5997H30.4992H30.3986H30.2981H30.1976H30.097H29.9966H29.8961H29.7957H29.6953H29.5949H29.4945H29.3942H29.294H29.1937H29.0935H28.9934H28.8933H28.7932H28.6932H28.5933H28.4934H28.3935H28.2938H28.1941H28.0944H27.9948H27.8953H27.7959H27.6965H27.5972H27.498H27.3989H27.2998H27.2009H27.102H27.0032H26.9045H26.8059H26.7074H26.609H26.5107H26.4125H26.3144H26.2164H26.1186H26.0208H25.9232H25.8256H25.7282H25.6309H25.5338H25.4368H25.3399H25.2431H25.1464H25.0499H24.9536H24.8574H24.7613H24.6653H24.5695H24.4739H24.3784H24.2831H24.1879H24.0929H23.998H23.9034H23.8088H23.7145H23.6203H23.5263H23.4324H23.3388H23.2453H23.152H23.0589H22.9659H22.8732H22.7806H22.6883H22.5961H22.5042H22.4124H22.3208H22.2295H22.1383H22.0474H21.9567H21.8662H21.7759H21.6858H21.5959H21.5063H21.4169H21.3277H21.2388H21.15H21.0616H20.9733H20.8853H20.7976H20.71H20.6228H20.5357H20.449H20.3624H20.2762H20.1902H20.1044H20.0189H19.9337H19.8488H19.7641H19.6797H19.5955H19.5117H19.4281H19.3448H19.2618H19.179H19.0966H19.0144H18.9325H18.851H18.7697H18.6887H18.6081H18.5277H18.4476H18.3679H18.2884H18.2093H18.1305H18.052H17.9738H17.8959H17.8184H17.7412H17.6643H17.5878H17.5116H17.4357H17.3602H17.285H17.2101H17.1356H17.0614H16.9876H16.9142H16.8411H16.7683H16.6959H16.6239H16.5522H16.4809H16.41H16.3394H16.2693H16.1994H16.13H16.061H15.9923H15.924H15.8561H15.7886H15.7214H15.6547H15.5884H15.5224H15.4569H15.3918H15.327H15.2627H15.1988H15.1353H15.0722H15.0096H14.9473H14.8855H14.8241H14.7631H14.7025H14.6424H14.5827H14.5235H14.4646H14.4063H14.3483H14.2908H14.2338H14.1772H14.121H14.0653H14.0101H13.9553H13.901H13.8471H13.7937H13.7408H13.6884H13.6364H13.5849H13.5338H13.4833H13.4332H13.3836H13.3345H13.2859H13.2377H13.1901H13.1429C10.4442 61.0334 7.85533 59.9608 5.9462 58.0537C4.03924 56.1446 2.96675 53.5558 2.96675 50.8572V13.1429ZM30.2048 52.6486V52.4251L29.9906 52.3612C27.0864 51.4949 24.9667 48.8015 24.9667 45.6191C24.9667 42.4367 27.0864 39.7433 29.9906 38.8771L30.2048 38.8132V38.5896V34.0953V33.7953H29.9048H23.6191C22.6282 33.7953 21.8239 32.991 21.8239 32.0001C21.8239 30.0995 20.2816 28.5572 18.381 28.5572C16.4805 28.5572 14.9382 30.0995 14.9382 32.0001C14.9382 32.991 14.1338 33.7953 13.1429 33.7953H6.85722H6.55722V34.0953V50.8572C6.55722 52.6045 7.25083 54.2795 8.48681 55.5134C9.72069 56.7493 11.3957 57.4429 13.1429 57.4429H29.9048H30.2048V57.1429V52.6486ZM34.0953 33.7953H33.7953V34.0953V40.381C33.7953 41.3719 32.991 42.1763 32.0001 42.1763C30.0995 42.1763 28.5572 43.7186 28.5572 45.6191C28.5572 47.5197 30.0995 49.062 32.0001 49.062C32.991 49.062 33.7953 49.8663 33.7953 50.8572V57.1429V57.4429H34.0953H50.8572C54.4947 57.4429 57.4429 54.4947 57.4429 50.8572V34.0953V33.7953H57.1429H52.6486H52.4251L52.3612 34.0096C51.4949 36.9137 48.8015 39.0334 45.6191 39.0334C42.4367 39.0334 39.7433 36.9137 38.8771 34.0096L38.8132 33.7953H38.5896H34.0953ZM57.1429 30.2048H57.4429V29.9048V13.1429C57.4429 11.3957 56.7493 9.72069 55.5134 8.48681C54.2795 7.25083 52.6045 6.55722 50.8572 6.55722H34.0953H33.7953V6.85722V6.86854V6.87987V6.89121V6.90257V6.91394V6.92532V6.93672V6.94813V6.95956V6.971V6.98245V6.99391V7.00539V7.01688V7.02838V7.0399V7.05142V7.06296V7.07451V7.08608V7.09765V7.10924V7.12084V7.13245V7.14407V7.1557V7.16734V7.17899V7.19065V7.20233V7.21401V7.2257V7.23741V7.24912V7.26084V7.27258V7.28432V7.29607V7.30783V7.3196V7.33138V7.34316V7.35496V7.36676V7.37858V7.3904V7.40222V7.41406V7.4259V7.43775V7.44961V7.46148V7.47335V7.48523V7.49712V7.50901V7.52091V7.53281V7.54473V7.55665V7.56857V7.5805V7.59244V7.60438V7.61632V7.62828V7.64023V7.65219V7.66416V7.67613V7.68811V7.70009V7.71207V7.72406V7.73605V7.74805V7.76005V7.77205V7.78406V7.79607V7.80808V7.8201V7.83212V7.84414V7.85616V7.86819V7.88022V7.89225V7.90428V7.91632V7.92835V7.94039V7.95243V7.96447V7.97651V7.98856V8.0006V8.01264V8.02469V8.03673V8.04878V8.06082V8.07287V8.08491V8.09696V8.109V8.12104V8.13309V8.14513V8.15717V8.16921V8.18125V8.19328V8.20532V8.21735V8.22938V8.24141V8.25344V8.26546V8.27748V8.2895V8.30152V8.31353V8.32554V8.33755V8.34956V8.36156V8.37355V8.38555V8.39754V8.40952V8.4215V8.43348V8.44545V8.45742V8.46938V8.48134V8.49329V8.50524V8.51718V8.52912V8.54105V8.55298V8.5649V8.57681V8.58872V8.60062V8.61251V8.6244V8.63628V8.64815V8.66002V8.67188V8.68373V8.69558V8.70742V8.71924V8.73107V8.74288V8.75469V8.76648V8.77827V8.79005V8.80182V8.81358V8.82534V8.83708V8.84881V8.86054V8.87225V8.88396V8.89566V8.90734V8.91902V8.93068V8.94234V8.95398V8.96561V8.97724V8.98885V9.00045V9.01203V9.02361V9.03518V9.04673V9.05827V9.0698V9.08132V9.09282V9.10432V9.1158V9.12726V9.13872V9.15016V9.16159V9.173V9.1844V9.19579V9.20716V9.21852V9.22987V9.2412V9.25252V9.26382V9.27511V9.28638V9.29764V9.30888V9.32011V9.33132V9.34252V9.3537V9.36486V9.37601V9.38715V9.39826V9.40936V9.42045V9.43152V9.44257V9.4536V9.46462V9.47562V9.4866V9.49756V9.50851V9.51944V9.53035V9.54125V9.55212V9.56298V9.57382V9.58464V9.59544V9.60622V9.61698V9.62772V9.63845V9.64915V9.65984V9.6705V9.68115V9.69177V9.70238V9.71296V9.72353V9.73407V9.74459V9.7551V9.76558V9.77604V9.78647V9.79689V9.80729V9.81766V9.82801V9.83834V9.84865V9.85893V9.86919V9.87943V9.88965V9.89984V9.91001V9.92016V9.93028V9.94038V9.95046V9.96051V9.97054V9.98055V9.99053V10.0005V10.0104V10.0203V10.0302V10.0401V10.0499V10.0597V10.0695V10.0792V10.089V10.0987V10.1084V10.118V10.1276V10.1372V10.1468V10.1564V10.1659V10.1754V10.1848V10.1943V10.2037V10.2131V10.2224V10.2318V10.2411V10.2503V10.2596V10.2688V10.278V10.2871V10.2963V10.3054V10.3144V10.3235V10.3325V10.3415V10.3504V10.3593V10.3682V10.3771V10.3859V10.3947V10.4035V10.4123V10.421V10.4297V10.4383V10.4469V10.4555V10.4641V10.4726V10.4811V10.4895V10.498V10.5064V10.5147V10.5231V10.5314V10.5396V10.5478V10.556V10.5642V10.5723V10.5804V10.5885V10.5965V10.6045V10.6125V10.6204V10.6283V10.6362V10.644V10.6518V10.6596V10.6673V10.675V10.6826V10.6902V10.6978V10.7054V10.7129V10.7203V10.7278V10.7352V10.7425V10.7499V10.7571V10.7644V10.7716V10.7788V10.7859V10.793V10.8001V10.8071V10.8141V10.8211V10.828V10.8348V10.8417V10.8485V10.8552V10.8619V10.8686V10.8753V10.8819V10.8884V10.895V10.9014V10.9079V10.9143V10.9206V10.927V10.9332V10.9395V10.9457V10.9518V10.958V10.964V10.9701V10.9761V10.982V10.9879V10.9938V10.9996V11.0054V11.0111V11.0168V11.0225V11.0281V11.0337V11.0392V11.0447V11.0501V11.0555V11.0609V11.0662V11.0715V11.0767V11.0819V11.087V11.0921V11.0971V11.1021V11.1071V11.112V11.1168V11.1217V11.1264V11.1312V11.1358V11.1405V11.1451V11.1496V11.1541V11.1586V11.163V11.1673V11.1716V11.1759V11.1801V11.1843V11.1884V11.1925V11.1965V11.2005V11.2044V11.2083V11.2121V11.2159V11.2196V11.2233V11.2269V11.2305V11.2341V11.2375V11.241V11.2444V11.2477V11.251V11.2542V11.2574V11.2606V11.2637V11.2667V11.2697V11.2726V11.2755V11.2783V11.2811V11.2838V11.2865V11.2892V11.2917V11.2942V11.2967V11.2991V11.3015V11.3038V11.3061V11.3083V11.3104V11.3125V11.3146V11.3166V11.3185V11.3204V11.3222V11.324V11.3257V11.3274V11.329V11.3306V11.3321V11.3335V11.3349V11.3363V11.3376V11.3388V11.34V11.3411V11.3421V11.3431V11.3441V11.345V11.3458V11.3466V11.3473V11.348V11.3486V11.3491V11.3496V11.3501V11.3505V11.3508V11.351V11.3512V11.3514V11.3515V11.5751L34.0096 11.639C36.9137 12.5052 39.0334 15.1986 39.0334 18.381C39.0334 21.5634 36.9137 24.2568 34.0096 25.1231L33.7953 25.187V25.4106V29.9048V30.2048H34.0953H40.381C41.3719 30.2048 42.1763 31.0092 42.1763 32.0001C42.1763 33.9006 43.7186 35.4429 45.6191 35.4429C47.5197 35.4429 49.062 33.9006 49.062 32.0001C49.062 31.0092 49.8663 30.2048 50.8572 30.2048H57.1429ZM29.9048 30.2048H30.2048V29.9048V23.6191C30.2048 22.6282 31.0092 21.8239 32.0001 21.8239C33.9006 21.8239 35.4429 20.2816 35.4429 18.381C35.4429 16.4805 33.9006 14.9382 32.0001 14.9382C31.0092 14.9382 30.2048 14.1338 30.2048 13.1429V6.85722V6.55722H29.9048H13.1429C11.3957 6.55722 9.72069 7.25083 8.48681 8.48681C7.25083 9.72069 6.55722 11.3957 6.55722 13.1429V29.9048V30.2048H6.85722H11.3515H11.5751L11.639 29.9906C12.5052 27.0864 15.1986 24.9667 18.381 24.9667C21.5634 24.9667 24.2568 27.0864 25.1231 29.9906L25.187 30.2048H25.4106H29.9048Z" fill="black" stroke="#F6F4F0" stroke-width="0.6"/>
</svg>
