<svg width="64" height="64" viewBox="0 0 64 64" fill="none" xmlns="http://www.w3.org/2000/svg">
<path d="M37.5106 60.2988H26.7453C26.3818 60.2988 26.0331 60.1543 25.7761 59.8973C25.519 59.6402 25.3746 59.2916 25.3746 58.9281V41.0854C25.3746 40.7219 25.519 40.3733 25.7761 40.1162C26.0331 39.8592 26.3818 39.7148 26.7453 39.7148H37.5106C37.8744 39.7148 38.2233 39.8591 38.4808 40.1161C38.7382 40.373 38.8832 40.7217 38.884 41.0854V58.9334C38.8818 59.2963 38.7362 59.6435 38.4789 59.8993C38.2216 60.1552 37.8735 60.2988 37.5106 60.2988ZM28.116 42.4561V57.5601H36.14V42.4561H28.116ZM15.6066 60.2988H4.83862C4.47602 60.2988 4.12819 60.1551 3.87129 59.8992C3.6144 59.6433 3.46936 59.296 3.46795 58.9334V28.8188C3.46795 28.455 3.61228 28.1061 3.86925 27.8486C4.12622 27.5911 4.47485 27.4461 4.83862 27.4454H15.6066C15.9709 27.4454 16.3202 27.5901 16.5777 27.8477C16.8353 28.1052 16.98 28.4545 16.98 28.8188V58.9334C16.9778 59.2963 16.8322 59.6435 16.5749 59.8993C16.3176 60.1552 15.9695 60.2988 15.6066 60.2988ZM6.21195 30.1894V57.5601H14.236V30.1894H6.21195ZM59.428 60.2934H48.66C48.2964 60.2934 47.9478 60.149 47.6907 59.892C47.4337 59.6349 47.2893 59.2863 47.2893 58.9228V23.2428C47.2893 22.8792 47.4337 22.5306 47.6907 22.2735C47.9478 22.0165 48.2964 21.8721 48.66 21.8721H59.4253C59.6057 21.8714 59.7845 21.9063 59.9515 21.9749C60.1184 22.0435 60.2701 22.1443 60.3979 22.2717C60.5258 22.399 60.6272 22.5503 60.6964 22.717C60.7657 22.8836 60.8013 23.0623 60.8013 23.2428V58.9334C60.7985 59.2956 60.6525 59.6419 60.3951 59.8967C60.1378 60.1515 59.7901 60.2941 59.428 60.2934ZM50.0306 24.6188V57.5574H58.0573V24.6188H50.0306ZM32.132 26.6268C31.7791 26.6316 31.4386 26.4964 31.1853 26.2508L17.364 13.0321L4.83062 23.6108C4.59976 23.7689 4.32645 23.8535 4.04662 23.8534C3.84675 23.8579 3.64834 23.8184 3.46541 23.7378C3.28248 23.6571 3.11949 23.5373 2.98795 23.3868C2.75521 23.1081 2.64152 22.7491 2.67146 22.3873C2.7014 22.0255 2.87257 21.69 3.14795 21.4534L16.5346 10.1601C16.783 9.94817 17.0988 9.83186 17.4253 9.83208C17.7767 9.83203 18.1143 9.9688 18.3666 10.2134L32.2093 23.4508L50.4333 8.86675L47.6946 5.33342C47.5429 5.13264 47.448 4.89475 47.4198 4.64468C47.3917 4.39461 47.4313 4.14156 47.5346 3.91208C47.6397 3.68197 47.8065 3.48543 48.0164 3.34423C48.2263 3.20303 48.4712 3.12269 48.724 3.11208L58.9906 2.66675H59.0573C59.2712 2.66628 59.4822 2.71617 59.6732 2.81238C59.8643 2.90859 60.03 3.04843 60.1569 3.22057C60.2839 3.39272 60.3686 3.59233 60.4041 3.80327C60.4396 4.0142 60.4249 4.23053 60.3613 4.43475L57.3346 14.2588C57.2602 14.4991 57.1215 14.7146 56.9335 14.8819C56.7455 15.0492 56.5154 15.162 56.268 15.2081C56.1851 15.2215 56.1013 15.2286 56.0173 15.2294C55.8083 15.2277 55.6025 15.1788 55.415 15.0865C55.2276 14.9941 55.0634 14.8607 54.9346 14.6961L52.1106 11.0241L32.9906 26.3254C32.7464 26.5196 32.4439 26.6258 32.132 26.6268ZM57.164 5.48275L51.468 5.72542L55.4973 10.9334L57.1666 5.49342L57.164 5.48275Z" fill="black"/>
</svg>
